<svg width="104" height="121" viewBox="0 0 104 121" fill="none" xmlns="http://www.w3.org/2000/svg">
<g clip-path="url(#clip0_7_31)">
<path d="M99.2172 30.3343H97.4873V24.533C97.4873 23.8451 97.1458 23.219 96.6107 22.9261C82.4445 15.1703 66.2279 15.0599 52 22.583C37.7721 15.0599 21.5555 15.1705 7.38929 22.9261C6.85423 23.219 6.51272 23.8451 6.51272 24.533V30.3343H4.78278C2.14553 30.3343 0 32.8306 0 35.8989V98.4116C0 101.48 2.14553 103.976 4.78278 103.976H99.2172C101.854 103.976 104 101.48 104 98.4116V35.8989C104 32.8306 101.854 30.3343 99.2172 30.3343ZM53.5264 56.731C53.5264 56.7289 53.5264 56.7265 53.5264 56.7244V25.6719C66.5797 18.8744 81.3807 18.8744 94.4344 25.6719V32.1034C94.4344 32.1058 94.4342 32.1081 94.4342 32.1103C94.4342 32.1124 94.4344 32.115 94.4344 32.1171V89.9977C87.8735 86.8103 80.9265 85.2162 73.9804 85.2162C67.0344 85.2162 60.0872 86.8103 53.5264 89.9977V56.731ZM43.7573 22.8245C46.0341 23.5832 48.279 24.5289 50.4736 25.6719V53.4183L47.9621 51.4703C47.4492 51.0724 46.7815 51.0724 46.2688 51.4703L43.7573 53.4183V22.8245ZM9.56556 32.115C9.56556 32.1133 9.56576 32.1119 9.56576 32.1103C9.56576 32.1086 9.56556 32.1074 9.56556 32.1058V25.6719C19.4492 20.525 30.3342 19.2788 40.7045 21.9259V29.7059C35.2568 28.4023 29.6984 28.1012 24.1524 28.8179C23.3145 28.9261 22.7109 29.8041 22.8039 30.779C22.8971 31.7536 23.6509 32.4567 24.4895 32.348C29.9251 31.6454 35.3736 31.9781 40.7043 33.3342V44.8626C37.4658 44.0895 34.1631 43.6628 30.8585 43.6022C30.0149 43.5837 29.3215 44.3691 29.3081 45.3497C29.2948 46.3305 29.9673 47.1379 30.8101 47.1536C34.1338 47.2147 37.4559 47.666 40.7041 48.4907V52.4356C31.8735 50.3261 22.7147 50.8624 14.0939 54.0139C13.2896 54.3077 12.8427 55.3046 13.0952 56.2404C13.3002 56.9991 13.902 57.4845 14.551 57.4845C14.7027 57.4845 14.8567 57.458 15.009 57.4023C23.3347 54.3591 32.192 53.9042 40.7041 56.0673V56.7362C40.7041 57.3912 41.0139 57.9931 41.5102 58.3019C42.0064 58.6111 42.6089 58.577 43.0772 58.2138L47.1151 55.0818L50.4732 57.6865V89.9975C43.9122 86.8101 36.9652 85.216 30.0192 85.216C23.0731 85.216 16.1259 86.8101 9.56515 89.9975V32.115H9.56556ZM45.589 100.424H4.78278C3.82887 100.424 3.05284 99.5215 3.05284 98.4116V35.8989C3.05284 34.7891 3.82887 33.8862 4.78278 33.8862H6.51272V92.7286V94.623C6.51272 95.6038 7.19615 96.3989 8.03914 96.3989H45.589V100.424ZM11.6598 92.847C23.4843 87.4165 36.5547 87.4162 48.3793 92.847H11.6598ZM55.3581 100.424H48.6419V96.3989H55.3581V100.424ZM92.3402 92.847H55.6207C67.4451 87.4165 80.5155 87.4165 92.3402 92.847ZM100.947 98.4116C100.947 99.5215 100.171 100.424 99.2172 100.424H58.411V96.3989H95.9609C96.8038 96.3989 97.4873 95.6038 97.4873 94.623V92.7286V33.8862H99.2172C100.171 33.8862 100.947 34.7891 100.947 35.8989V98.4116Z" fill="black"/>
<path d="M63.0838 75.24C61.3942 75.652 59.7023 76.1661 58.0552 76.7682C57.2509 77.0623 56.8039 78.0592 57.0565 78.9948C57.2615 79.7534 57.8633 80.2389 58.5123 80.2389C58.6639 80.2389 58.818 80.2123 58.9702 80.1567C60.5227 79.5894 62.1175 79.1046 63.7099 78.7163C64.535 78.515 65.0637 77.5738 64.8907 76.6138C64.7179 75.6539 63.9083 75.0389 63.0838 75.24Z" fill="black"/>
<path d="M89.4486 80.2386C90.0976 80.2386 90.6996 79.753 90.9044 78.9945C91.1569 78.0587 90.7098 77.0619 89.9057 76.768C83.3781 74.3821 76.6097 73.4903 69.7887 74.1188C68.9483 74.196 68.3211 75.0513 68.3874 76.0292C68.4538 77.0072 69.1883 77.7372 70.0295 77.6595C76.4587 77.0678 82.8382 77.9077 88.9906 80.1567C89.1429 80.2124 89.2969 80.2386 89.4486 80.2386Z" fill="black"/>
<path d="M58.5123 72.6396C58.664 72.6396 58.818 72.613 58.9703 72.5574C68.79 68.9679 79.1711 68.9679 88.9906 72.5574C89.795 72.851 90.6518 72.331 90.9044 71.3955C91.1569 70.4597 90.7098 69.4628 89.9057 69.1689C79.4872 65.3606 68.4735 65.3606 58.0552 69.1689C57.2509 69.4628 56.8038 70.4597 57.0565 71.3955C57.2615 72.1539 57.8633 72.6396 58.5123 72.6396Z" fill="black"/>
<path d="M58.5123 65.0841C58.664 65.0841 58.818 65.0575 58.9703 65.0019C64.604 62.9425 70.4508 62.0628 76.3509 62.3884C77.1949 62.4339 77.908 61.6783 77.9479 60.6985C77.9878 59.7186 77.3375 58.887 76.4954 58.8404C70.2364 58.4956 64.0325 59.4283 58.0552 61.6132C57.2509 61.9073 56.8038 62.9042 57.0565 63.8397C57.2615 64.5989 57.8633 65.0841 58.5123 65.0841Z" fill="black"/>
<path d="M89.9056 61.6134C87.7157 60.813 85.4595 60.1723 83.1992 59.7089C82.3688 59.5386 81.5775 60.1839 81.431 61.1498C81.2846 62.1156 81.839 63.0367 82.6694 63.207C84.7997 63.6436 86.9265 64.2477 88.9904 65.0021C89.1428 65.0578 89.2967 65.0843 89.4483 65.0843C90.0974 65.0843 90.6994 64.5986 90.9041 63.8402C91.1569 62.9041 90.71 61.9073 89.9056 61.6134Z" fill="black"/>
<path d="M58.5123 57.4849C58.664 57.4849 58.818 57.4584 58.9703 57.4028C68.79 53.8133 79.1711 53.8133 88.9906 57.4028C89.795 57.6964 90.6518 57.1764 90.9044 56.2409C91.1569 55.3051 90.7098 54.3082 89.9057 54.0143C79.4872 50.206 68.4735 50.206 58.0552 54.0143C57.2509 54.3082 56.8038 55.3051 57.0565 56.2409C57.2615 56.9993 57.8633 57.4849 58.5123 57.4849Z" fill="black"/>
<path d="M68.1145 43.9725C64.7092 44.4125 61.3246 45.2417 58.0552 46.4368C57.2509 46.7307 56.8039 47.7276 57.0565 48.6634C57.2615 49.422 57.8633 49.9075 58.5123 49.9075C58.6639 49.9075 58.818 49.8809 58.9702 49.8253C62.0518 48.6989 65.2418 47.9175 68.4513 47.5026C69.2892 47.3944 69.8929 46.5164 69.7999 45.5415C69.7069 44.5666 68.9514 43.8641 68.1145 43.9725Z" fill="black"/>
<path d="M74.7713 47.1538C79.5999 47.2426 84.3839 48.1412 88.9906 49.8255C89.1429 49.8809 89.2969 49.9077 89.4485 49.9077C90.0976 49.9077 90.6994 49.422 90.9043 48.6636C91.1569 47.7278 90.7098 46.7309 89.9057 46.4371C85.0181 44.6505 79.9422 43.6969 74.8195 43.6027C73.98 43.5842 73.2826 44.3696 73.2691 45.3502C73.2557 46.3307 73.9283 47.1384 74.7713 47.1538Z" fill="black"/>
<path d="M79.5103 39.9476C80.348 40.0565 81.1029 39.3535 81.1959 38.3786C81.2891 37.4037 80.6853 36.5257 79.8474 36.4175C72.4693 35.4639 65.1372 36.2929 58.0552 38.8815C57.2509 39.1756 56.8039 40.1725 57.0565 41.1081C57.2615 41.8668 57.8633 42.3522 58.5123 42.3522C58.6639 42.3522 58.818 42.3257 58.9702 42.27C65.6452 39.8301 72.5558 39.0489 79.5103 39.9476Z" fill="black"/>
<path d="M89.9057 38.8815C88.803 38.4785 87.6751 38.1129 86.5532 37.7951C85.733 37.563 84.9084 38.1474 84.7089 39.1003C84.5095 40.0531 85.0118 41.014 85.8307 41.2461C86.8882 41.5456 87.9512 41.8902 88.9906 42.27C89.1429 42.3256 89.2969 42.3521 89.4486 42.3521C90.0976 42.3521 90.6996 41.8665 90.9043 41.108C91.1569 40.1722 90.71 39.1753 89.9057 38.8815Z" fill="black"/>
<path d="M58.5123 34.7531C58.6639 34.7531 58.818 34.7266 58.9702 34.6709C60.0088 34.2911 61.0716 33.9468 62.1291 33.647C62.9481 33.415 63.4504 32.4543 63.2509 31.5012C63.0515 30.5482 62.2256 29.964 61.4066 30.196C60.2846 30.5138 59.1571 30.8794 58.055 31.2822C57.2509 31.5763 56.8037 32.5732 57.0563 33.5087C57.2615 34.2674 57.8633 34.7531 58.5123 34.7531Z" fill="black"/>
<path d="M68.4505 32.3482C75.4053 31.4493 82.3157 32.2308 88.9907 34.6709C89.1429 34.7263 89.297 34.7531 89.4486 34.7531C90.0976 34.7531 90.6994 34.2674 90.9044 33.509C91.1569 32.5732 90.7098 31.5763 89.9057 31.2824C82.8237 28.6936 75.4914 27.8643 68.1133 28.8184C67.2754 28.9266 66.6718 29.8046 66.7648 30.7795C66.858 31.7541 67.6122 32.4569 68.4505 32.3482Z" fill="black"/>
<path d="M19.123 75.24C17.4333 75.652 15.7414 76.1661 14.0943 76.7682C13.29 77.0623 12.8431 78.0592 13.0956 78.9948C13.3006 79.7534 13.9024 80.2389 14.5514 80.2389C14.7031 80.2389 14.8571 80.2123 15.0094 80.1567C16.5618 79.5894 18.1566 79.1046 19.749 78.7163C20.5741 78.515 21.1028 77.5738 20.9298 76.6138C20.7568 75.6539 19.9474 75.0389 19.123 75.24Z" fill="black"/>
<path d="M45.4877 80.2386C46.1367 80.2386 46.7387 79.753 46.9435 78.9945C47.1961 78.0587 46.7489 77.0619 45.9448 76.768C39.4172 74.3821 32.6485 73.4903 25.8278 74.1188C24.9875 74.196 24.3602 75.0513 24.4266 76.0292C24.4929 77.0072 25.2272 77.7372 26.0686 77.6595C32.4981 77.0678 38.8773 77.9077 45.0298 80.1567C45.182 80.2124 45.3361 80.2386 45.4877 80.2386Z" fill="black"/>
<path d="M14.5515 72.6396C14.7031 72.6396 14.8571 72.613 15.0094 72.5574C24.8291 68.9679 35.2102 68.9679 45.0298 72.5574C45.8341 72.851 46.6909 72.331 46.9435 71.3955C47.1961 70.4597 46.7489 69.4628 45.9448 69.1689C35.5263 65.3606 24.5125 65.3606 14.0943 69.1689C13.29 69.4628 12.8429 70.4597 13.0957 71.3955C13.3006 72.1539 13.9024 72.6396 14.5515 72.6396Z" fill="black"/>
<path d="M14.5515 65.0841C14.7031 65.0841 14.8571 65.0575 15.0094 65.0019C20.6431 62.9425 26.4903 62.0628 32.39 62.3884C33.2362 62.4339 33.9469 61.6783 33.987 60.6985C34.0269 59.7186 33.3767 58.887 32.5345 58.8404C26.275 58.4956 20.0716 59.4283 14.0943 61.6132C13.29 61.9073 12.8429 62.9042 13.0957 63.8397C13.3006 64.5989 13.9024 65.0841 14.5515 65.0841Z" fill="black"/>
<path d="M38.7088 63.207C40.8391 63.6436 42.9659 64.2477 45.0298 65.0021C45.1822 65.0578 45.3361 65.0843 45.4877 65.0843C46.1367 65.0843 46.7388 64.5986 46.9435 63.8402C47.1961 62.9044 46.7489 61.9075 45.9448 61.6136C43.7549 60.8133 41.4987 60.1725 39.2383 59.7091C38.4082 59.5389 37.6165 60.1841 37.4701 61.15C37.324 62.1156 37.8784 63.0368 38.7088 63.207Z" fill="black"/>
<path d="M24.1536 43.9725C20.7483 44.4125 17.3637 45.2417 14.0943 46.4368C13.29 46.7307 12.8431 47.7276 13.0956 48.6633C13.3006 49.422 13.9024 49.9074 14.5514 49.9074C14.7031 49.9074 14.8571 49.8809 15.0094 49.8253C18.0909 48.6989 21.2809 47.9175 24.4905 47.5026C25.3284 47.3944 25.932 46.5164 25.839 45.5415C25.7462 44.5669 24.9901 43.8641 24.1536 43.9725Z" fill="black"/>
<path d="M13.0956 41.1081C13.3006 41.8667 13.9024 42.3522 14.5514 42.3522C14.7031 42.3522 14.8571 42.3256 15.0094 42.27C21.6843 39.8299 28.5949 39.0487 35.5495 39.9473C36.3872 40.0562 37.142 39.3532 37.235 38.3783C37.3283 37.4035 36.7244 36.5255 35.8865 36.4172C28.5082 35.4637 21.1763 36.2927 14.0943 38.8813C13.29 39.1756 12.8431 40.1725 13.0956 41.1081Z" fill="black"/>
<path d="M14.5514 34.7531C14.7031 34.7531 14.8571 34.7266 15.0094 34.6709C16.0479 34.2911 17.1107 33.9468 18.1682 33.647C18.9872 33.415 19.4895 32.4543 19.2901 31.5012C19.0906 30.5482 18.2647 29.964 17.4457 30.196C16.3237 30.5138 15.1962 30.8794 14.0941 31.2822C13.29 31.5763 12.8429 32.5732 13.0954 33.5087C13.3006 34.2674 13.9024 34.7531 14.5514 34.7531Z" fill="black"/>
</g>
<defs>
<clipPath id="clip0_7_31">
<rect width="104" height="121" fill="white"/>
</clipPath>
</defs>
</svg>
